<?xml version="1.0" encoding="UTF-8"?>
<svg width="34px" height="34px" viewBox="0 0 34 34" version="1.1" xmlns="http://www.w3.org/2000/svg" xmlns:xlink="http://www.w3.org/1999/xlink">
    <!-- Generator: Sketch 52.6 (67491) - http://www.bohemiancoding.com/sketch -->
    <title>Group 2</title>
    <desc>Created with Sketch.</desc>
    <g id="Symbols" stroke="none" stroke-width="1" fill="none" fill-rule="evenodd">
        <g id="result" transform="translate(-1257.000000, -27.000000)" fill-rule="nonzero">
            <g id="Group-3">
                <g id="Group-2" transform="translate(1258.000000, 28.000000)">
                    <circle id="Oval" stroke="#000000" cx="16" cy="16" r="16"></circle>
                    <g id="question-mark" transform="translate(10.472727, 6.981818)" fill="#000000">
                        <path d="M9.92080251,1.27617427 C8.77702821,0.425529337 7.34053918,0 5.61173668,0 C4.29582445,0 3.18615674,0.299753043 2.28373668,0.897811046 C0.852664577,1.83513405 0.0916865204,3.4261628 2.27373675e-13,5.67069041 L3.31656426,5.67069041 C3.31656426,5.01739841 3.50154232,4.3874826 3.87149843,3.78052923 C4.2418558,3.1739896 4.86961755,2.87113353 5.75518495,2.87113353 C6.65559875,2.87113353 7.2759373,3.11730752 7.61519749,3.60924178 C7.95485893,4.10179664 8.12458934,4.64730994 8.12458934,5.24557481 C8.12458934,5.76543637 7.87139812,6.24185546 7.56664577,6.67503894 C7.39892163,6.92741901 7.17783072,7.15952592 6.90317241,7.37198028 C6.90317241,7.37198028 5.10455172,8.56147648 4.31508464,9.51679708 C3.85705329,10.0714126 3.81592476,10.9011638 3.77559875,12.0921081 C3.77278997,12.1767175 3.8042884,12.3517286 4.09178683,12.3517286 C4.37928527,12.3517286 6.41544828,12.3517286 6.67124765,12.3517286 C6.92704702,12.3517286 6.98041379,12.1549962 6.98402508,12.0699731 C7.0020815,11.6359621 7.04942947,11.4148193 7.12586834,11.1645079 C7.27092163,10.6916056 7.66515361,10.2784884 8.10753605,9.92391509 L9.02058934,9.27413986 C9.84456426,8.61236623 10.5022194,8.06892162 10.7921254,7.64339228 C11.2880752,6.94293417 11.6363636,6.08049771 11.6363636,5.05649663 C11.6363636,3.38706457 11.0641755,2.12681921 9.92080251,1.27617427 Z M5.55836991,14.4015925 C4.41539812,14.3664248 3.47225078,15.1816952 3.43613793,16.460145 C3.40042633,17.7381811 4.29742947,18.5822062 5.44040125,18.6169602 C6.63393103,18.653576 7.55159875,17.864578 7.58731034,16.5867488 C7.62302194,15.3082989 6.75189969,14.4380015 5.55836991,14.4015925 Z" id="Shape"></path>
                    </g>
                </g>
            </g>
        </g>
    </g>
</svg>