<svg xmlns="http://www.w3.org/2000/svg" viewBox="0 0 328.45 57.27"><defs><style>.cls-1{fill:#191918;}</style></defs><title>quitrichAsset 1</title><g id="Layer_2" data-name="Layer 2"><g id="Layer_1-2" data-name="Layer 1"><path class="cls-1" d="M18.5,19.47A14.66,14.66,0,0,0,22,21.32l-1.62,3.11a10.06,10.06,0,0,1-2-.82c-.14-.07-1.12-.71-2.94-1.94a11.66,11.66,0,0,1-4.76.94,10.45,10.45,0,0,1-7.89-3Q0,16.68,0,11.31T2.86,3a10.27,10.27,0,0,1,7.78-3,10.15,10.15,0,0,1,7.71,3q2.85,3,2.85,8.33a14.54,14.54,0,0,1-.79,5A10.64,10.64,0,0,1,18.5,19.47ZM15,17a6.73,6.73,0,0,0,1.27-2.42,11.12,11.12,0,0,0,.43-3.25q0-3.8-1.67-5.66a5.59,5.59,0,0,0-4.37-1.88A5.61,5.61,0,0,0,6.23,5.65C5.11,6.91,4.55,8.79,4.55,11.31S5.11,15.77,6.23,17a5.4,5.4,0,0,0,4.24,1.9,5.18,5.18,0,0,0,1.81-.31,12.92,12.92,0,0,0-2.73-1.37l1.23-2.52A14.71,14.71,0,0,1,15,17Z"/><path class="cls-1" d="M35.05,22.24V19.87a6.11,6.11,0,0,1-2.27,2,6.46,6.46,0,0,1-3,.73,5.88,5.88,0,0,1-2.86-.7,4.17,4.17,0,0,1-1.84-2,9,9,0,0,1-.56-3.51V6.4h4.19v7.28A20.47,20.47,0,0,0,29,17.77,2.26,2.26,0,0,0,29.8,19a2.63,2.63,0,0,0,1.55.44,3.34,3.34,0,0,0,1.93-.59,3,3,0,0,0,1.16-1.46,16.88,16.88,0,0,0,.32-4.28V6.4H39V22.24Z"/><path class="cls-1" d="M43.29,4.25V.37h4.19V4.25Zm0,18V6.4h4.19V22.24Z"/><path class="cls-1" d="M59,6.4V9.74H56.18v6.38a15.08,15.08,0,0,0,.08,2.26.87.87,0,0,0,.37.53,1.19,1.19,0,0,0,.71.21,5.39,5.39,0,0,0,1.69-.4L59.38,22a8.28,8.28,0,0,1-3.31.63,5.3,5.3,0,0,1-2-.38,3,3,0,0,1-1.34-1,3.89,3.89,0,0,1-.59-1.63,20.44,20.44,0,0,1-.13-3V9.74H50.05V6.4H52V3.25L56.18.81V6.4Z"/><path class="cls-1" d="M70.48,22.24V.37h9.29a16,16,0,0,1,5.1.59,5,5,0,0,1,2.54,2.1,6.25,6.25,0,0,1,1,3.44,5.88,5.88,0,0,1-1.45,4.07,7,7,0,0,1-4.33,2A10.44,10.44,0,0,1,85,14.42,25,25,0,0,1,87.47,18l2.67,4.27H84.86l-3.19-4.76a29.37,29.37,0,0,0-2.33-3.21A3.38,3.38,0,0,0,78,13.36a7,7,0,0,0-2.22-.25H74.9v9.13ZM74.9,9.62h3.26a16.81,16.81,0,0,0,4-.27,2.36,2.36,0,0,0,1.24-.92,2.85,2.85,0,0,0,.45-1.64A2.66,2.66,0,0,0,83.23,5a2.74,2.74,0,0,0-1.67-.85c-.35-.05-1.43-.08-3.22-.08H74.9Z"/><path class="cls-1" d="M92.5,4.25V.37h4.19V4.25Zm0,18V6.4h4.19V22.24Z"/><path class="cls-1" d="M114.8,11.08l-4.13.75a3,3,0,0,0-1-1.87,2.89,2.89,0,0,0-1.92-.62,3.14,3.14,0,0,0-2.5,1.08,5.56,5.56,0,0,0-.93,3.62,6.42,6.42,0,0,0,.95,4,3.12,3.12,0,0,0,2.54,1.16,2.8,2.8,0,0,0,2-.68,4.12,4.12,0,0,0,1.07-2.33l4.12.7a7.31,7.31,0,0,1-2.46,4.28,7.6,7.6,0,0,1-4.88,1.45,7.24,7.24,0,0,1-5.54-2.19,8.52,8.52,0,0,1-2.07-6.08,8.51,8.51,0,0,1,2.07-6.1A7.38,7.38,0,0,1,107.74,6a7.63,7.63,0,0,1,4.6,1.25A6.9,6.9,0,0,1,114.8,11.08Z"/><path class="cls-1" d="M122.15.37v8a6.28,6.28,0,0,1,7.46-1.83A4.2,4.2,0,0,1,131.36,8a5,5,0,0,1,.81,1.85,17.1,17.1,0,0,1,.21,3.15v9.29h-4.19V13.87a12.32,12.32,0,0,0-.24-3.16,2.06,2.06,0,0,0-.84-1.07,2.73,2.73,0,0,0-1.51-.39,3.48,3.48,0,0,0-1.87.51,2.94,2.94,0,0,0-1.2,1.52,9.3,9.3,0,0,0-.38,3v7.93H118V.37Z"/><path class="cls-1" d="M137.44,10.59V6.4h4.19v4.19Zm0,11.65V18.05h4.19v4.19Z"/><path class="cls-1" d="M154.21,15.13l4.29-.42a5.28,5.28,0,0,0,1.58,3.18,4.78,4.78,0,0,0,3.2,1,4.92,4.92,0,0,0,3.21-.9,2.69,2.69,0,0,0,1.08-2.11,2,2,0,0,0-.45-1.32,3.61,3.61,0,0,0-1.59-1q-.78-.27-3.54-1a11.91,11.91,0,0,1-5-2.16,5.69,5.69,0,0,1-2-4.4A5.55,5.55,0,0,1,156,3,5.94,5.94,0,0,1,158.68.76,10.85,10.85,0,0,1,163,0q4.11,0,6.2,1.81a6.37,6.37,0,0,1,2.18,4.81l-4.41.2a3.78,3.78,0,0,0-1.22-2.43,4.46,4.46,0,0,0-2.8-.74,5,5,0,0,0-3,.8,1.57,1.57,0,0,0-.7,1.35,1.68,1.68,0,0,0,.66,1.33,11.57,11.57,0,0,0,4.05,1.46,21.12,21.12,0,0,1,4.77,1.58,6.18,6.18,0,0,1,2.42,2.22,6.51,6.51,0,0,1,.87,3.48,6.41,6.41,0,0,1-1.05,3.52A6.19,6.19,0,0,1,168,21.83a12.42,12.42,0,0,1-4.76.8,9.47,9.47,0,0,1-6.37-1.92A8.35,8.35,0,0,1,154.21,15.13Z"/><path class="cls-1" d="M184.85,17.2l4.17.7a6.81,6.81,0,0,1-2.54,3.5,7.48,7.48,0,0,1-4.35,1.2q-4.12,0-6.11-2.7a9,9,0,0,1-1.57-5.46,8.76,8.76,0,0,1,2.06-6.17A6.76,6.76,0,0,1,181.71,6a7,7,0,0,1,5.58,2.34c1.36,1.55,2,3.94,2,7.15h-10.5a4.18,4.18,0,0,0,1,2.9,3.18,3.18,0,0,0,2.42,1,2.56,2.56,0,0,0,1.65-.54A3.34,3.34,0,0,0,184.85,17.2Zm.24-4.24a4.05,4.05,0,0,0-.94-2.76,3,3,0,0,0-4.45.05,3.83,3.83,0,0,0-.88,2.71Z"/><path class="cls-1" d="M195.8,11.23,192,10.55a5.86,5.86,0,0,1,2.21-3.4A8,8,0,0,1,198.85,6a9.93,9.93,0,0,1,4.18.67A4.15,4.15,0,0,1,205,8.39a8.67,8.67,0,0,1,.56,3.75l0,4.89a16.62,16.62,0,0,0,.2,3.09,8.74,8.74,0,0,0,.75,2.12h-4.15c-.11-.28-.24-.69-.4-1.24-.07-.25-.12-.41-.15-.49a7.5,7.5,0,0,1-2.29,1.57,6.77,6.77,0,0,1-2.62.52A5.36,5.36,0,0,1,193,21.27a4.39,4.39,0,0,1-1.41-3.35,4.49,4.49,0,0,1,.64-2.4,4.2,4.2,0,0,1,1.8-1.61,14.22,14.22,0,0,1,3.33-1,22.64,22.64,0,0,0,4.07-1v-.41a2.22,2.22,0,0,0-.59-1.73,3.6,3.6,0,0,0-2.25-.51,3,3,0,0,0-1.75.44A3,3,0,0,0,195.8,11.23Zm5.6,3.4a22.85,22.85,0,0,1-2.55.64,7.66,7.66,0,0,0-2.28.74,1.73,1.73,0,0,0-.82,1.47,2,2,0,0,0,.66,1.52,2.27,2.27,0,0,0,1.67.65,3.63,3.63,0,0,0,2.16-.75,2.62,2.62,0,0,0,1-1.39,8.31,8.31,0,0,0,.16-2Z"/><path class="cls-1" d="M208.18,17.72l4.2-.64a3.14,3.14,0,0,0,1.09,1.86,3.7,3.7,0,0,0,2.3.63,4.16,4.16,0,0,0,2.45-.6,1.33,1.33,0,0,0,.55-1.11,1.12,1.12,0,0,0-.3-.8,3.52,3.52,0,0,0-1.4-.55c-3.38-.74-5.53-1.42-6.43-2a4.07,4.07,0,0,1-1.88-3.57,4.41,4.41,0,0,1,1.62-3.46A7.65,7.65,0,0,1,215.43,6a8.78,8.78,0,0,1,4.83,1.06,5.46,5.46,0,0,1,2.18,3.13l-4,.73a2.47,2.47,0,0,0-1-1.41,3.48,3.48,0,0,0-2-.5,4.53,4.53,0,0,0-2.37.47,1,1,0,0,0-.48.85.92.92,0,0,0,.42.76A15.75,15.75,0,0,0,217,12.31a11.59,11.59,0,0,1,4.68,1.86A3.87,3.87,0,0,1,223,17.29,4.75,4.75,0,0,1,221.15,21a8,8,0,0,1-5.38,1.57,8.84,8.84,0,0,1-5.12-1.31A6,6,0,0,1,208.18,17.72Z"/><path class="cls-1" d="M225.67,14.1a8.67,8.67,0,0,1,1-4,7.11,7.11,0,0,1,2.92-3,8.61,8.61,0,0,1,4.21-1,7.93,7.93,0,0,1,5.9,2.34,8.05,8.05,0,0,1,2.29,5.9,8.13,8.13,0,0,1-2.32,6,7.82,7.82,0,0,1-5.84,2.37,9.15,9.15,0,0,1-4.15-1,6.71,6.71,0,0,1-3-2.88A9.69,9.69,0,0,1,225.67,14.1Zm4.3.22a5.24,5.24,0,0,0,1.12,3.61,3.66,3.66,0,0,0,5.51,0,5.34,5.34,0,0,0,1.11-3.64,5.24,5.24,0,0,0-1.11-3.58,3.66,3.66,0,0,0-5.51,0A5.24,5.24,0,0,0,230,14.32Z"/><path class="cls-1" d="M259.71,22.24h-4.19V14.16a12.43,12.43,0,0,0-.27-3.32,2.27,2.27,0,0,0-.87-1.17,2.48,2.48,0,0,0-1.45-.42,3.36,3.36,0,0,0-2,.6,3,3,0,0,0-1.18,1.58,13.38,13.38,0,0,0-.32,3.64v7.17h-4.2V6.4h3.9V8.73a6.48,6.48,0,0,1,7.75-2.19,4.17,4.17,0,0,1,1.74,1.28,4.53,4.53,0,0,1,.82,1.76,12.67,12.67,0,0,1,.23,2.82Z"/><path class="cls-1" d="M271.59,11.44a13.84,13.84,0,0,1,1-5.61,10.26,10.26,0,0,1,2-3,8.4,8.4,0,0,1,2.83-2A11.92,11.92,0,0,1,282.16,0a10.29,10.29,0,0,1,7.74,3q2.89,3,2.9,8.34t-2.88,8.28a10.18,10.18,0,0,1-7.7,3,10.29,10.29,0,0,1-7.75-3Q271.59,16.65,271.59,11.44Zm4.55-.15a8.19,8.19,0,0,0,1.71,5.63,5.6,5.6,0,0,0,4.36,1.92,5.53,5.53,0,0,0,4.33-1.9q1.69-1.91,1.69-5.71t-1.64-5.61a6.1,6.1,0,0,0-8.78,0C276.69,6.89,276.14,8.78,276.14,11.29Z"/><path class="cls-1" d="M310.62,22.24h-4.19V14.16a12.43,12.43,0,0,0-.27-3.32,2.27,2.27,0,0,0-.87-1.17,2.48,2.48,0,0,0-1.45-.42,3.36,3.36,0,0,0-2,.6,3,3,0,0,0-1.18,1.58,13.38,13.38,0,0,0-.32,3.64v7.17h-4.2V6.4h3.9V8.73a6.48,6.48,0,0,1,7.75-2.19,4.17,4.17,0,0,1,1.74,1.28,4.53,4.53,0,0,1,.82,1.76,12.67,12.67,0,0,1,.23,2.82Z"/><path class="cls-1" d="M324.05,17.2l4.18.7a6.88,6.88,0,0,1-2.55,3.5,7.48,7.48,0,0,1-4.35,1.2q-4.12,0-6.11-2.7a9,9,0,0,1-1.57-5.46,8.76,8.76,0,0,1,2.06-6.17A6.77,6.77,0,0,1,320.92,6a7,7,0,0,1,5.57,2.34c1.37,1.55,2,3.94,2,7.15H318a4.27,4.27,0,0,0,1,2.9,3.18,3.18,0,0,0,2.42,1,2.54,2.54,0,0,0,1.65-.54A3.34,3.34,0,0,0,324.05,17.2Zm.24-4.24a4.05,4.05,0,0,0-.94-2.76,3,3,0,0,0-4.45.05A3.88,3.88,0,0,0,318,13Z"/><path class="cls-1" d="M.76,51.24V29.37H5.18V51.24Z"/><path class="cls-1" d="M23.76,51.24H19.57V43.16a12.43,12.43,0,0,0-.27-3.32,2.27,2.27,0,0,0-.87-1.17A2.49,2.49,0,0,0,17,38.25a3.36,3.36,0,0,0-1.95.6,3,3,0,0,0-1.19,1.58,13.81,13.81,0,0,0-.32,3.64v7.17H9.32V35.4h3.9v2.33A6.48,6.48,0,0,1,21,35.54a4.17,4.17,0,0,1,1.74,1.28,4.53,4.53,0,0,1,.82,1.76,13.3,13.3,0,0,1,.23,2.82Z"/><path class="cls-1" d="M35.28,35.4v3.34H32.41v6.38a14.39,14.39,0,0,0,.09,2.26.83.83,0,0,0,.37.53,1.17,1.17,0,0,0,.71.21,5.28,5.28,0,0,0,1.68-.4L35.62,51a8.28,8.28,0,0,1-3.31.63,5.26,5.26,0,0,1-2-.38,3,3,0,0,1-1.34-1,3.89,3.89,0,0,1-.59-1.63,20.44,20.44,0,0,1-.13-3V38.74H26.28V35.4h1.93V32.25l4.2-2.44V35.4Z"/><path class="cls-1" d="M47.36,46.2l4.18.7A6.88,6.88,0,0,1,49,50.4a7.45,7.45,0,0,1-4.34,1.2q-4.14,0-6.12-2.7A9.09,9.09,0,0,1,37,43.44,8.76,8.76,0,0,1,39,37.27,6.77,6.77,0,0,1,44.23,35a7,7,0,0,1,5.58,2.34c1.36,1.55,2,3.94,1.95,7.15H41.26a4.27,4.27,0,0,0,1,2.9,3.2,3.2,0,0,0,2.42,1,2.57,2.57,0,0,0,1.66-.54A3.4,3.4,0,0,0,47.36,46.2ZM47.6,42a4,4,0,0,0-.94-2.76,2.86,2.86,0,0,0-2.18-1,2.92,2.92,0,0,0-2.27,1A3.88,3.88,0,0,0,41.33,42Z"/><path class="cls-1" d="M59.19,51.24H55V35.4h3.89v2.25a6.9,6.9,0,0,1,1.8-2.1A3.27,3.27,0,0,1,62.5,35a5.27,5.27,0,0,1,2.76.79L64,39.49a3.64,3.64,0,0,0-2-.69,2.3,2.3,0,0,0-1.49.49,3.23,3.23,0,0,0-1,1.75,25.1,25.1,0,0,0-.35,5.31Z"/><path class="cls-1" d="M70.2,40.23l-3.81-.68a5.91,5.91,0,0,1,2.21-3.4A8.07,8.07,0,0,1,73.26,35a9.87,9.87,0,0,1,4.17.67,4.11,4.11,0,0,1,1.93,1.68,8.52,8.52,0,0,1,.56,3.75l0,4.89a17.55,17.55,0,0,0,.2,3.09,9.19,9.19,0,0,0,.75,2.12H76.69c-.11-.28-.25-.69-.41-1.24-.07-.25-.12-.41-.15-.49a7.5,7.5,0,0,1-2.29,1.57,6.75,6.75,0,0,1-2.61.52,5.39,5.39,0,0,1-3.86-1.33A4.39,4.39,0,0,1,66,46.92a4.58,4.58,0,0,1,.64-2.4,4.2,4.2,0,0,1,1.8-1.61,14.22,14.22,0,0,1,3.33-1,23.06,23.06,0,0,0,4.08-1v-.41a2.18,2.18,0,0,0-.6-1.73A3.6,3.6,0,0,0,73,38.25a2.51,2.51,0,0,0-2.76,2Zm5.61,3.4a24.1,24.1,0,0,1-2.55.64A7.64,7.64,0,0,0,71,45a1.75,1.75,0,0,0-.82,1.47A2,2,0,0,0,70.81,48a2.28,2.28,0,0,0,1.67.65,3.59,3.59,0,0,0,2.16-.75,2.62,2.62,0,0,0,1-1.39,8.16,8.16,0,0,0,.17-2Z"/><path class="cls-1" d="M97.87,40.08l-4.13.75A3,3,0,0,0,92.79,39a2.89,2.89,0,0,0-1.92-.62,3.14,3.14,0,0,0-2.5,1.08A5.56,5.56,0,0,0,87.44,43a6.42,6.42,0,0,0,1,4,3.12,3.12,0,0,0,2.54,1.16,2.8,2.8,0,0,0,2-.68A4.12,4.12,0,0,0,94,45.17l4.12.7a7.31,7.31,0,0,1-2.46,4.28,7.6,7.6,0,0,1-4.88,1.45,7.24,7.24,0,0,1-5.54-2.19,8.52,8.52,0,0,1-2.07-6.08,8.51,8.51,0,0,1,2.07-6.1A7.38,7.38,0,0,1,90.81,35a7.63,7.63,0,0,1,4.6,1.25A6.9,6.9,0,0,1,97.87,40.08Z"/><path class="cls-1" d="M108.31,35.4v3.34h-2.86v6.38a15.08,15.08,0,0,0,.08,2.26.87.87,0,0,0,.37.53,1.17,1.17,0,0,0,.71.21,5.28,5.28,0,0,0,1.68-.4l.36,3.25a8.28,8.28,0,0,1-3.31.63,5.3,5.3,0,0,1-2-.38,3,3,0,0,1-1.34-1,3.89,3.89,0,0,1-.59-1.63,20.44,20.44,0,0,1-.13-3V38.74H99.31V35.4h1.93V32.25l4.21-2.44V35.4Z"/><path class="cls-1" d="M111.22,33.25V29.37h4.19v3.88Zm0,18V35.4h4.19V51.24Z"/><path class="cls-1" d="M124.06,51.24,117.68,35.4h4.4l3,8.08.87,2.7c.22-.68.37-1.13.43-1.35q.21-.67.45-1.35l3-8.08h4.31l-6.29,15.84Z"/><path class="cls-1" d="M145.87,46.2l4.18.7a6.88,6.88,0,0,1-2.55,3.5,7.48,7.48,0,0,1-4.35,1.2q-4.12,0-6.11-2.7a9,9,0,0,1-1.57-5.46,8.76,8.76,0,0,1,2.06-6.17A6.77,6.77,0,0,1,142.74,35a7,7,0,0,1,5.58,2.34c1.36,1.55,2,3.94,2,7.15h-10.5a4.27,4.27,0,0,0,1,2.9,3.18,3.18,0,0,0,2.42,1,2.52,2.52,0,0,0,1.65-.54A3.34,3.34,0,0,0,145.87,46.2Zm.24-4.24a4,4,0,0,0-.94-2.76,2.86,2.86,0,0,0-2.18-1,2.92,2.92,0,0,0-2.27,1,3.88,3.88,0,0,0-.88,2.71Z"/><path class="cls-1" d="M162.2,51.24V29.37h16.22v3.7h-11.8v4.85h11V41.6h-11v6h12.21v3.68Z"/><path class="cls-1" d="M180.54,51.24l5.71-8.16-5.48-7.68h5.12l2.81,4.35,3-4.35h4.92l-5.37,7.5,5.86,8.34h-5.14l-3.22-4.91-3.26,4.91Z"/><path class="cls-1" d="M199.42,35.4h3.91v2.33a5.74,5.74,0,0,1,2.06-1.94,5.62,5.62,0,0,1,2.88-.75A6,6,0,0,1,213,37.2a8.8,8.8,0,0,1,1.92,6,9,9,0,0,1-1.93,6.17,6,6,0,0,1-4.7,2.2,5.43,5.43,0,0,1-2.38-.52,8.25,8.25,0,0,1-2.25-1.79v8h-4.19Zm4.15,7.65a6.09,6.09,0,0,0,1.06,4,3.22,3.22,0,0,0,2.58,1.27,3,3,0,0,0,2.43-1.17,6.07,6.07,0,0,0,1-3.84,5.78,5.78,0,0,0-1-3.7,3.11,3.11,0,0,0-2.48-1.21,3.23,3.23,0,0,0-2.55,1.19A5.31,5.31,0,0,0,203.57,43.05Z"/><path class="cls-1" d="M227.37,46.2l4.18.7A6.86,6.86,0,0,1,229,50.4a7.48,7.48,0,0,1-4.35,1.2c-2.76,0-4.79-.9-6.12-2.7A9.09,9.09,0,0,1,217,43.44,8.72,8.72,0,0,1,219,37.27a6.75,6.75,0,0,1,5.2-2.23,7,7,0,0,1,5.58,2.34c1.36,1.55,2,3.94,2,7.15h-10.5a4.23,4.23,0,0,0,1,2.9,3.16,3.16,0,0,0,2.41,1,2.57,2.57,0,0,0,1.66-.54A3.27,3.27,0,0,0,227.37,46.2Zm.24-4.24a4,4,0,0,0-.94-2.76,2.84,2.84,0,0,0-2.18-1,2.88,2.88,0,0,0-2.26,1,3.83,3.83,0,0,0-.88,2.71Z"/><path class="cls-1" d="M239.2,51.24H235V35.4h3.89v2.25a6.9,6.9,0,0,1,1.8-2.1,3.29,3.29,0,0,1,1.81-.51,5.27,5.27,0,0,1,2.76.79L244,39.49a3.7,3.7,0,0,0-2-.69,2.27,2.27,0,0,0-1.49.49,3.3,3.3,0,0,0-1,1.75,25.1,25.1,0,0,0-.35,5.31Z"/><path class="cls-1" d="M247.08,33.25V29.37h4.19v3.88Zm0,18V35.4h4.19V51.24Z"/><path class="cls-1" d="M264.74,46.2l4.18.7a6.88,6.88,0,0,1-2.55,3.5A7.46,7.46,0,0,1,262,51.6q-4.12,0-6.11-2.7a9,9,0,0,1-1.57-5.46,8.76,8.76,0,0,1,2.06-6.17A6.77,6.77,0,0,1,261.61,35a7,7,0,0,1,5.58,2.34c1.36,1.55,2,3.94,1.95,7.15h-10.5a4.27,4.27,0,0,0,1,2.9,3.18,3.18,0,0,0,2.42,1,2.57,2.57,0,0,0,1.66-.54A3.4,3.4,0,0,0,264.74,46.2ZM265,42A4,4,0,0,0,264,39.2a2.86,2.86,0,0,0-2.18-1,2.92,2.92,0,0,0-2.27,1,3.88,3.88,0,0,0-.88,2.71Z"/><path class="cls-1" d="M287,51.24h-4.2V43.16a12.58,12.58,0,0,0-.26-3.32,2.24,2.24,0,0,0-.88-1.17,2.46,2.46,0,0,0-1.45-.42,3.31,3.31,0,0,0-1.95.6A2.93,2.93,0,0,0,277,40.43a13.38,13.38,0,0,0-.32,3.64v7.17h-4.19V35.4h3.89v2.33a6.49,6.49,0,0,1,7.76-2.19,4.19,4.19,0,0,1,1.73,1.28,4.39,4.39,0,0,1,.82,1.76A12.55,12.55,0,0,1,287,41.4Z"/><path class="cls-1" d="M305,40.08l-4.13.75A3,3,0,0,0,300,39a2.89,2.89,0,0,0-1.92-.62,3.15,3.15,0,0,0-2.5,1.08A5.56,5.56,0,0,0,294.6,43a6.42,6.42,0,0,0,.95,4,3.12,3.12,0,0,0,2.54,1.16,2.8,2.8,0,0,0,2-.68,4.12,4.12,0,0,0,1.07-2.33l4.12.7a7.31,7.31,0,0,1-2.46,4.28,7.6,7.6,0,0,1-4.88,1.45,7.24,7.24,0,0,1-5.54-2.19,8.52,8.52,0,0,1-2.07-6.08,8.47,8.47,0,0,1,2.08-6.1A7.34,7.34,0,0,1,298,35a7.68,7.68,0,0,1,4.61,1.25A6.94,6.94,0,0,1,305,40.08Z"/><path class="cls-1" d="M317.38,46.2l4.18.7A6.88,6.88,0,0,1,319,50.4a7.45,7.45,0,0,1-4.34,1.2q-4.14,0-6.12-2.7A9.09,9.09,0,0,1,307,43.44,8.76,8.76,0,0,1,309,37.27,6.77,6.77,0,0,1,314.25,35a7,7,0,0,1,5.58,2.34c1.36,1.55,2,3.94,1.95,7.15h-10.5a4.27,4.27,0,0,0,1,2.9,3.2,3.2,0,0,0,2.42,1,2.57,2.57,0,0,0,1.66-.54A3.4,3.4,0,0,0,317.38,46.2Zm.24-4.24a4,4,0,0,0-.94-2.76,2.86,2.86,0,0,0-2.18-1,2.92,2.92,0,0,0-2.27,1,3.88,3.88,0,0,0-.88,2.71Z"/></g></g></svg>