<?xml version="1.0" encoding="utf-8"?>
<!-- Generator: Adobe Illustrator 22.0.0, SVG Export Plug-In . SVG Version: 6.00 Build 0)  -->
<svg version="1.1" id="Capa_1" xmlns="http://www.w3.org/2000/svg" xmlns:xlink="http://www.w3.org/1999/xlink" x="0px" y="0px"
	 viewBox="0 0 276 206" style="enable-background:new 0 0 276 206;" xml:space="preserve">
<g>
	<path d="M12.4,47.7l10.3-1c0.6,3.5,1.9,6,3.8,7.6c1.9,1.6,4.5,2.4,7.7,2.4c3.4,0,6-0.7,7.7-2.2c1.7-1.4,2.6-3.1,2.6-5.1
		c0-1.2-0.4-2.3-1.1-3.2c-0.7-0.9-2-1.6-3.8-2.3c-1.2-0.4-4.1-1.2-8.5-2.3c-5.7-1.4-9.7-3.1-12-5.2c-3.2-2.9-4.8-6.4-4.8-10.6
		c0-2.7,0.8-5.2,2.3-7.5s3.7-4.1,6.6-5.3c2.9-1.2,6.3-1.8,10.4-1.8c6.6,0,11.6,1.4,14.9,4.3c3.3,2.9,5.1,6.8,5.3,11.6L43,27.7
		c-0.5-2.7-1.4-4.6-2.9-5.8c-1.5-1.2-3.7-1.8-6.7-1.8c-3.1,0-5.5,0.6-7.3,1.9c-1.1,0.8-1.7,1.9-1.7,3.3c0,1.2,0.5,2.3,1.6,3.2
		c1.3,1.1,4.6,2.3,9.8,3.5c5.2,1.2,9,2.5,11.5,3.8c2.5,1.3,4.4,3.1,5.8,5.3c1.4,2.3,2.1,5.1,2.1,8.4c0,3-0.8,5.8-2.5,8.5
		c-1.7,2.6-4,4.6-7.1,5.9c-3.1,1.3-6.9,1.9-11.5,1.9c-6.7,0-11.8-1.5-15.3-4.6C15.2,58,13.1,53.5,12.4,47.7z"/>
	<path d="M86.1,52.7l10.1,1.7c-1.3,3.7-3.3,6.5-6.1,8.4c-2.8,1.9-6.3,2.9-10.5,2.9c-6.6,0-11.5-2.2-14.7-6.5
		c-2.5-3.5-3.8-7.8-3.8-13.1c0-6.3,1.7-11.3,5-14.8c3.3-3.6,7.5-5.4,12.5-5.4c5.7,0,10.1,1.9,13.4,5.6c3.3,3.7,4.8,9.5,4.7,17.2
		H71.4c0.1,3,0.9,5.3,2.4,7c1.6,1.7,3.5,2.5,5.8,2.5c1.6,0,2.9-0.4,4-1.3C84.7,56,85.6,54.6,86.1,52.7z M86.7,42.5
		c-0.1-2.9-0.8-5.1-2.3-6.7c-1.4-1.5-3.2-2.3-5.2-2.3c-2.2,0-4,0.8-5.5,2.4c-1.4,1.6-2.1,3.8-2.1,6.5H86.7z"/>
	<path d="M112.5,38.3l-9.2-1.7c1-3.7,2.8-6.4,5.3-8.2c2.5-1.8,6.2-2.7,11.2-2.7c4.5,0,7.8,0.5,10.1,1.6s3.8,2.4,4.6,4.1
		c0.9,1.6,1.3,4.6,1.3,9l-0.1,11.8c0,3.4,0.2,5.8,0.5,7.4c0.3,1.6,0.9,3.3,1.8,5.1h-10c-0.3-0.7-0.6-1.7-1-3c-0.2-0.6-0.3-1-0.4-1.2
		c-1.7,1.7-3.6,2.9-5.5,3.8c-2,0.8-4.1,1.3-6.3,1.3c-3.9,0-7-1.1-9.3-3.2c-2.3-2.1-3.4-4.8-3.4-8.1c0-2.2,0.5-4.1,1.5-5.8
		c1-1.7,2.5-3,4.3-3.9c1.9-0.9,4.5-1.7,8-2.4c4.7-0.9,8-1.7,9.8-2.5v-1c0-1.9-0.5-3.3-1.4-4.1c-1-0.8-2.8-1.2-5.4-1.2
		c-1.8,0-3.2,0.4-4.2,1.1C113.9,35.3,113.1,36.5,112.5,38.3z M125.9,46.5c-1.3,0.4-3.3,0.9-6.1,1.5c-2.8,0.6-4.6,1.2-5.5,1.8
		c-1.3,0.9-2,2.1-2,3.6c0,1.4,0.5,2.6,1.6,3.7c1.1,1,2.4,1.5,4,1.5c1.8,0,3.6-0.6,5.2-1.8c1.2-0.9,2-2,2.4-3.3
		c0.3-0.9,0.4-2.5,0.4-4.9V46.5z"/>
	<path d="M142.2,53.9l10.1-1.5c0.4,2,1.3,3.5,2.6,4.5c1.3,1,3.2,1.5,5.5,1.5c2.6,0,4.6-0.5,5.9-1.4c0.9-0.7,1.3-1.6,1.3-2.7
		c0-0.8-0.2-1.4-0.7-1.9c-0.5-0.5-1.6-0.9-3.4-1.3c-8.1-1.8-13.3-3.4-15.5-4.9c-3-2.1-4.5-4.9-4.5-8.6c0-3.3,1.3-6.1,3.9-8.3
		c2.6-2.2,6.7-3.4,12.1-3.4c5.2,0,9.1,0.8,11.6,2.5s4.3,4.2,5.2,7.5l-9.5,1.8c-0.4-1.5-1.2-2.6-2.3-3.4c-1.1-0.8-2.8-1.2-4.9-1.2
		c-2.7,0-4.6,0.4-5.7,1.1c-0.8,0.5-1.1,1.2-1.1,2c0,0.7,0.3,1.3,1,1.8c0.9,0.7,4,1.6,9.4,2.8c5.4,1.2,9.1,2.7,11.3,4.5
		c2.1,1.8,3.2,4.3,3.2,7.5c0,3.5-1.5,6.5-4.4,9c-2.9,2.5-7.2,3.8-13,3.8c-5.2,0-9.3-1.1-12.3-3.2C145.2,60.4,143.2,57.5,142.2,53.9z
		"/>
	<path d="M184.4,45.2c0-3.4,0.8-6.6,2.5-9.7c1.7-3.1,4-5.5,7-7.2c3-1.7,6.4-2.5,10.1-2.5c5.8,0,10.5,1.9,14.2,5.6
		c3.7,3.7,5.5,8.5,5.5,14.2c0,5.8-1.9,10.5-5.6,14.3c-3.7,3.8-8.4,5.7-14.1,5.7c-3.5,0-6.8-0.8-10-2.4c-3.2-1.6-5.6-3.9-7.2-6.9
		C185.2,53.3,184.4,49.6,184.4,45.2z M194.7,45.7c0,3.8,0.9,6.7,2.7,8.7c1.8,2,4,3,6.6,3c2.6,0,4.8-1,6.6-3c1.8-2,2.7-4.9,2.7-8.8
		c0-3.7-0.9-6.6-2.7-8.6c-1.8-2-4-3-6.6-3c-2.6,0-4.8,1-6.6,3C195.6,39,194.7,41.9,194.7,45.7z"/>
	<path d="M266.3,64.8h-10.1V45.3c0-4.1-0.2-6.8-0.6-8c-0.4-1.2-1.1-2.1-2.1-2.8c-1-0.7-2.1-1-3.5-1c-1.7,0-3.3,0.5-4.7,1.4
		c-1.4,1-2.3,2.2-2.9,3.8c-0.5,1.6-0.8,4.5-0.8,8.8v17.3h-10.1V26.7h9.4v5.6c3.3-4.3,7.5-6.5,12.6-6.5c2.2,0,4.3,0.4,6.1,1.2
		c1.8,0.8,3.2,1.8,4.2,3.1c0.9,1.2,1.6,2.7,2,4.2c0.4,1.6,0.6,3.8,0.6,6.8V64.8z"/>
</g>
<g>
	<path d="M15.9,194.4v-15.7h-5.6v-3.2h15v3.2h-5.6v15.7H15.9z"/>
	<path d="M31.3,175.6v6.9c1.2-1.4,2.6-2,4.2-2c0.8,0,1.6,0.2,2.3,0.5c0.7,0.3,1.2,0.7,1.5,1.2c0.3,0.5,0.6,1,0.7,1.6
		c0.1,0.6,0.2,1.5,0.2,2.7v8h-3.6v-7.2c0-1.4-0.1-2.3-0.2-2.7c-0.1-0.4-0.4-0.7-0.7-0.9c-0.3-0.2-0.8-0.3-1.3-0.3
		c-0.6,0-1.1,0.1-1.6,0.4c-0.5,0.3-0.8,0.7-1,1.3c-0.2,0.6-0.3,1.5-0.3,2.6v6.8h-3.6v-18.9H31.3z"/>
	<path d="M51.7,190.1l3.6,0.6c-0.5,1.3-1.2,2.3-2.2,3c-1,0.7-2.2,1-3.8,1c-2.4,0-4.1-0.8-5.3-2.3c-0.9-1.2-1.4-2.8-1.4-4.7
		c0-2.3,0.6-4,1.8-5.3s2.7-1.9,4.5-1.9c2,0,3.6,0.7,4.8,2c1.2,1.3,1.7,3.4,1.7,6.2h-9.1c0,1.1,0.3,1.9,0.9,2.5
		c0.6,0.6,1.3,0.9,2.1,0.9c0.6,0,1-0.2,1.4-0.5C51.2,191.2,51.5,190.8,51.7,190.1z M51.9,186.4c0-1-0.3-1.8-0.8-2.4
		c-0.5-0.5-1.1-0.8-1.9-0.8c-0.8,0-1.4,0.3-2,0.9c-0.5,0.6-0.8,1.4-0.8,2.3H51.9z"/>
	<path d="M65.8,194.4v-18.9h3.8v7.4h7.5v-7.4h3.8v18.9h-3.8v-8.2h-7.5v8.2H65.8z"/>
	<path d="M87.5,184.9l-3.3-0.6c0.4-1.3,1-2.3,1.9-2.9c0.9-0.6,2.2-1,4-1c1.6,0,2.8,0.2,3.6,0.6c0.8,0.4,1.3,0.9,1.7,1.5
		c0.3,0.6,0.5,1.7,0.5,3.2l0,4.2c0,1.2,0.1,2.1,0.2,2.7s0.3,1.2,0.7,1.8h-3.6c-0.1-0.2-0.2-0.6-0.3-1.1c-0.1-0.2-0.1-0.4-0.1-0.4
		c-0.6,0.6-1.3,1.1-2,1.4c-0.7,0.3-1.5,0.5-2.3,0.5c-1.4,0-2.5-0.4-3.3-1.1c-0.8-0.8-1.2-1.7-1.2-2.9c0-0.8,0.2-1.5,0.6-2.1
		c0.4-0.6,0.9-1.1,1.5-1.4c0.7-0.3,1.6-0.6,2.9-0.8c1.7-0.3,2.9-0.6,3.5-0.9v-0.4c0-0.7-0.2-1.2-0.5-1.5c-0.3-0.3-1-0.4-1.9-0.4
		c-0.6,0-1.1,0.1-1.5,0.4C88,183.8,87.7,184.3,87.5,184.9z M92.3,187.9c-0.5,0.2-1.2,0.3-2.2,0.6c-1,0.2-1.7,0.4-2,0.6
		c-0.5,0.3-0.7,0.8-0.7,1.3c0,0.5,0.2,0.9,0.6,1.3c0.4,0.4,0.9,0.6,1.4,0.6c0.7,0,1.3-0.2,1.9-0.6c0.4-0.3,0.7-0.7,0.9-1.2
		c0.1-0.3,0.1-0.9,0.1-1.8V187.9z"/>
	<path d="M99.3,194.4v-18.9h3.6v6.8c1.1-1.3,2.4-1.9,4-1.9c1.7,0,3,0.6,4.1,1.8c1.1,1.2,1.6,2.9,1.6,5.2c0,2.3-0.6,4.1-1.7,5.4
		c-1.1,1.3-2.5,1.9-4,1.9c-0.8,0-1.6-0.2-2.3-0.6c-0.8-0.4-1.4-1-2-1.7v2H99.3z M102.9,187.3c0,1.4,0.2,2.5,0.7,3.1
		c0.6,1,1.5,1.4,2.5,1.4c0.8,0,1.5-0.3,2-1c0.6-0.7,0.8-1.8,0.8-3.2c0-1.6-0.3-2.7-0.8-3.4c-0.6-0.7-1.3-1-2.2-1
		c-0.9,0-1.6,0.3-2.2,1C103.2,184.9,102.9,185.9,102.9,187.3z"/>
	<path d="M115.5,178.9v-3.3h3.6v3.3H115.5z M115.5,194.4v-13.7h3.6v13.7H115.5z"/>
	<path d="M129.1,180.7v2.9h-2.5v5.5c0,1.1,0,1.8,0.1,1.9c0,0.2,0.2,0.3,0.3,0.5c0.2,0.1,0.4,0.2,0.6,0.2c0.3,0,0.8-0.1,1.5-0.3
		l0.3,2.8c-0.8,0.4-1.8,0.5-2.9,0.5c-0.7,0-1.2-0.1-1.8-0.3s-0.9-0.5-1.2-0.8c-0.2-0.3-0.4-0.8-0.5-1.4c-0.1-0.4-0.1-1.3-0.1-2.5v-6
		h-1.7v-2.9h1.7V178l3.6-2.1v4.8H129.1z"/>
	<path d="M151.1,187.5l3.7,1.2c-0.6,2.1-1.5,3.6-2.8,4.6c-1.3,1-3,1.5-5,1.5c-2.5,0-4.6-0.9-6.2-2.6c-1.6-1.7-2.4-4.1-2.4-7
		c0-3.1,0.8-5.6,2.4-7.3c1.6-1.7,3.8-2.6,6.4-2.6c2.3,0,4.2,0.7,5.6,2c0.9,0.8,1.5,2,1.9,3.5l-3.8,0.9c-0.2-1-0.7-1.7-1.4-2.3
		c-0.7-0.6-1.6-0.8-2.6-0.8c-1.4,0-2.5,0.5-3.4,1.5c-0.9,1-1.3,2.6-1.3,4.9c0,2.4,0.4,4.1,1.3,5.1c0.9,1,2,1.5,3.3,1.5
		c1,0,1.9-0.3,2.6-1C150.2,189.9,150.7,188.9,151.1,187.5z"/>
	<path d="M160.7,184.9l-3.3-0.6c0.4-1.3,1-2.3,1.9-2.9c0.9-0.6,2.2-1,4-1c1.6,0,2.8,0.2,3.6,0.6c0.8,0.4,1.3,0.9,1.7,1.5
		c0.3,0.6,0.5,1.7,0.5,3.2l0,4.2c0,1.2,0.1,2.1,0.2,2.7s0.3,1.2,0.7,1.8h-3.6c-0.1-0.2-0.2-0.6-0.3-1.1c-0.1-0.2-0.1-0.4-0.1-0.4
		c-0.6,0.6-1.3,1.1-2,1.4c-0.7,0.3-1.5,0.5-2.3,0.5c-1.4,0-2.5-0.4-3.3-1.1c-0.8-0.8-1.2-1.7-1.2-2.9c0-0.8,0.2-1.5,0.6-2.1
		c0.4-0.6,0.9-1.1,1.5-1.4c0.7-0.3,1.6-0.6,2.9-0.8c1.7-0.3,2.9-0.6,3.5-0.9v-0.4c0-0.7-0.2-1.2-0.5-1.5c-0.3-0.3-1-0.4-1.9-0.4
		c-0.6,0-1.1,0.1-1.5,0.4C161.2,183.8,160.9,184.3,160.7,184.9z M165.5,187.9c-0.5,0.2-1.2,0.3-2.2,0.6c-1,0.2-1.7,0.4-2,0.6
		c-0.5,0.3-0.7,0.8-0.7,1.3c0,0.5,0.2,0.9,0.6,1.3c0.4,0.4,0.9,0.6,1.4,0.6c0.7,0,1.3-0.2,1.9-0.6c0.4-0.3,0.7-0.7,0.9-1.2
		c0.1-0.3,0.1-0.9,0.1-1.8V187.9z"/>
	<path d="M172.6,194.4v-18.9h3.6v18.9H172.6z"/>
	<path d="M191.9,184.8l-3.6,0.6c-0.1-0.7-0.4-1.2-0.8-1.6c-0.4-0.4-1-0.5-1.7-0.5c-0.9,0-1.6,0.3-2.2,0.9c-0.5,0.6-0.8,1.7-0.8,3.1
		c0,1.6,0.3,2.8,0.8,3.4c0.5,0.7,1.3,1,2.2,1c0.7,0,1.2-0.2,1.7-0.6c0.4-0.4,0.7-1.1,0.9-2l3.6,0.6c-0.4,1.6-1.1,2.9-2.1,3.7
		c-1,0.8-2.4,1.2-4.2,1.2c-2,0-3.6-0.6-4.8-1.9c-1.2-1.3-1.8-3-1.8-5.2c0-2.3,0.6-4,1.8-5.3c1.2-1.3,2.8-1.9,4.8-1.9
		c1.7,0,3,0.4,4,1.1S191.5,183.3,191.9,184.8z"/>
	<path d="M203.6,194.4v-2c-0.5,0.7-1.2,1.3-2,1.7c-0.8,0.4-1.7,0.6-2.6,0.6c-0.9,0-1.7-0.2-2.5-0.6c-0.7-0.4-1.3-1-1.6-1.7
		c-0.3-0.7-0.5-1.7-0.5-3v-8.6h3.6v6.3c0,1.9,0.1,3.1,0.2,3.5s0.4,0.8,0.7,1c0.4,0.3,0.8,0.4,1.3,0.4c0.6,0,1.2-0.2,1.7-0.5
		c0.5-0.3,0.8-0.8,1-1.3c0.2-0.5,0.3-1.7,0.3-3.7v-5.8h3.6v13.7H203.6z"/>
	<path d="M210.7,194.4v-18.9h3.6v18.9H210.7z"/>
	<path d="M220.7,184.9l-3.3-0.6c0.4-1.3,1-2.3,1.9-2.9c0.9-0.6,2.2-1,4-1c1.6,0,2.8,0.2,3.6,0.6c0.8,0.4,1.3,0.9,1.7,1.5
		c0.3,0.6,0.5,1.7,0.5,3.2l0,4.2c0,1.2,0.1,2.1,0.2,2.7s0.3,1.2,0.7,1.8h-3.6c-0.1-0.2-0.2-0.6-0.3-1.1c-0.1-0.2-0.1-0.4-0.1-0.4
		c-0.6,0.6-1.3,1.1-2,1.4c-0.7,0.3-1.5,0.5-2.3,0.5c-1.4,0-2.5-0.4-3.3-1.1c-0.8-0.8-1.2-1.7-1.2-2.9c0-0.8,0.2-1.5,0.6-2.1
		c0.4-0.6,0.9-1.1,1.5-1.4c0.7-0.3,1.6-0.6,2.9-0.8c1.7-0.3,2.9-0.6,3.5-0.9v-0.4c0-0.7-0.2-1.2-0.5-1.5c-0.3-0.3-1-0.4-1.9-0.4
		c-0.6,0-1.1,0.1-1.5,0.4C221.3,183.8,221,184.3,220.7,184.9z M225.6,187.9c-0.5,0.2-1.2,0.3-2.2,0.6c-1,0.2-1.7,0.4-2,0.6
		c-0.5,0.3-0.7,0.8-0.7,1.3c0,0.5,0.2,0.9,0.6,1.3c0.4,0.4,0.9,0.6,1.4,0.6c0.7,0,1.3-0.2,1.9-0.6c0.4-0.3,0.7-0.7,0.9-1.2
		c0.1-0.3,0.1-0.9,0.1-1.8V187.9z"/>
	<path d="M239,180.7v2.9h-2.5v5.5c0,1.1,0,1.8,0.1,1.9c0,0.2,0.2,0.3,0.3,0.5c0.2,0.1,0.4,0.2,0.6,0.2c0.3,0,0.8-0.1,1.5-0.3
		l0.3,2.8c-0.8,0.4-1.8,0.5-2.9,0.5c-0.7,0-1.2-0.1-1.8-0.3s-0.9-0.5-1.2-0.8c-0.2-0.3-0.4-0.8-0.5-1.4c-0.1-0.4-0.1-1.3-0.1-2.5v-6
		h-1.7v-2.9h1.7V178l3.6-2.1v4.8H239z"/>
	<path d="M240.6,187.4c0-1.2,0.3-2.4,0.9-3.5c0.6-1.1,1.4-2,2.5-2.6c1.1-0.6,2.3-0.9,3.6-0.9c2.1,0,3.8,0.7,5.1,2c1.3,1.3,2,3,2,5.1
		c0,2.1-0.7,3.8-2,5.1c-1.3,1.4-3,2-5,2c-1.3,0-2.4-0.3-3.6-0.8c-1.1-0.6-2-1.4-2.6-2.5C240.9,190.3,240.6,189,240.6,187.4z
		 M244.3,187.6c0,1.4,0.3,2.4,1,3.1c0.6,0.7,1.4,1.1,2.4,1.1c0.9,0,1.7-0.4,2.4-1.1c0.6-0.7,1-1.8,1-3.1c0-1.3-0.3-2.4-1-3.1
		c-0.6-0.7-1.4-1.1-2.4-1.1c-0.9,0-1.7,0.4-2.4,1.1C244.7,185.2,244.3,186.2,244.3,187.6z"/>
	<path d="M261,194.4h-3.6v-13.7h3.4v1.9c0.6-0.9,1.1-1.5,1.6-1.8c0.5-0.3,1-0.4,1.6-0.4c0.8,0,1.6,0.2,2.4,0.7l-1.1,3.2
		c-0.6-0.4-1.2-0.6-1.7-0.6c-0.5,0-0.9,0.1-1.3,0.4c-0.4,0.3-0.6,0.8-0.8,1.5s-0.3,2.3-0.3,4.6V194.4z"/>
</g>
<g>
	<path d="M15,119.1c0-8.8,1.3-16.2,4-22.2c2-4.4,4.7-8.4,8.1-11.9c3.4-3.5,7.1-6.1,11.2-7.8c5.4-2.3,11.6-3.4,18.7-3.4
		c12.8,0,23,4,30.7,11.9c7.7,7.9,11.5,18.9,11.5,33.1c0,14-3.8,24.9-11.4,32.9c-7.6,7.9-17.8,11.9-30.5,11.9
		c-12.9,0-23.1-3.9-30.8-11.8C18.8,143.7,15,132.9,15,119.1z M33,118.5c0,9.8,2.3,17.3,6.8,22.3c4.5,5.1,10.3,7.6,17.3,7.6
		c7,0,12.7-2.5,17.2-7.5c4.5-5,6.7-12.6,6.7-22.6c0-9.9-2.2-17.3-6.5-22.2c-4.4-4.9-10.1-7.3-17.4-7.3s-13,2.5-17.4,7.4
		C35.2,101.1,33,108.5,33,118.5z"/>
	<path d="M112.9,161.9V75.2h17l35.5,57.9V75.2h16.3v86.7h-17.6l-35-56.5v56.5H112.9z"/>
	<path d="M200.2,161.9V75.2h64.3v14.7h-46.8v19.2h43.5v14.6h-43.5v23.6h48.4v14.6H200.2z"/>
</g>
</svg>
